<?xml version="1.0" encoding="UTF-8" standalone="no"?>
<!DOCTYPE svg PUBLIC "-//W3C//DTD SVG 1.1//EN" "http://www.w3.org/Graphics/SVG/1.1/DTD/svg11.dtd">
<svg width="100%" height="100%" viewBox="0 0 9800 2400" version="1.1" xmlns="http://www.w3.org/2000/svg" xmlns:xlink="http://www.w3.org/1999/xlink" xml:space="preserve" xmlns:serif="http://www.serif.com/" style="fill-rule:evenodd;clip-rule:evenodd;stroke-linejoin:round;stroke-miterlimit:2;">
    <g transform="matrix(1.13517,-0.20016,0.198059,1.12325,-603.035,-45.2042)">
        <path d="M1052.1,1617.58C1052.1,1059.22 926.669,933.792 368.307,933.792C926.669,933.792 1052.1,808.362 1052.1,250C1052.1,808.362 1177.53,933.792 1735.89,933.792C1177.53,933.792 1052.1,1059.22 1052.1,1617.58Z" style="fill-rule:nonzero;"/>
    </g>
    <g transform="matrix(6.95526,0,0,6.95526,-3714.28,-5978.13)">
        <g>
            <g transform="matrix(1,0,0,1,687.313,1202)">
                <text x="0px" y="0px" style="font-family:'TAN-MERINGUE', 'TAN - MERINGUE';font-size:200px;">E</text>
            </g>
            <g transform="matrix(1,0,0,1,861.113,1202)">
                <g>
                    <text x="0px" y="0px" style="font-family:'TAN-MERINGUE', 'TAN - MERINGUE';font-size:200px;">V</text>
                    <g transform="matrix(1,0,0,1,158,0)">
                        <text x="0px" y="0px" style="font-family:'TAN-MERINGUE', 'TAN - MERINGUE';font-size:200px;">ENTFUL</text>
                    </g>
                </g>
            </g>
        </g>
    </g>
</svg>
